<svg width="77" height="24" viewBox="0 0 77 24" fill="none" xmlns="http://www.w3.org/2000/svg">
<path d="M28.1917 0.00863487C28.3693 -0.00604473 28.3983 -0.00437467 28.5727 0.0322956C29.7537 0.828794 28.9242 4.571 28.8087 5.75227C28.6206 7.67536 28.3932 9.26789 27.6901 11.0655C27.0726 12.6445 26.3969 14.1658 25.7773 15.7334C25.5 16.4351 25.5787 17.6874 25.4144 18.4426C25.2963 19.1238 25.1477 19.6799 24.9615 20.3435C27.1518 21.6224 28.3741 20.2939 30.6486 21.2347C31.9061 21.7549 32.337 22.3974 33.3608 23.1097C31.4567 23.0416 29.6502 23.2209 27.7389 23.2045L0 23.2049C1.12674 22.0237 1.82725 21.368 3.4383 20.9188C3.98717 20.7657 4.21589 20.6376 4.85108 20.548C5.81627 20.5039 6.40372 20.5685 7.26171 21.0101C7.66579 20.7422 7.90322 20.6564 8.35458 20.4743C7.87891 19.3661 7.9027 18.1812 7.62362 17.0012C7.39449 16.0325 6.93524 15.1985 6.70565 14.245C6.36972 12.8181 6.38852 11.4089 6.22552 9.95496C6.01895 8.11201 5.62972 6.11201 6.08154 4.26877C6.22238 3.69414 6.70762 2.03183 7.13096 1.66006C7.42222 1.63853 9.62524 5.57865 9.81748 6.0849C10.189 7.06342 10.3576 8.35425 10.7064 9.30554C11.3677 11.1091 11.6918 13.9052 13.3999 14.9644C14.991 14.2545 15.5843 14.588 16.9189 15.5326C18.764 14.2204 18.1902 14.5078 20.5419 14.3661C21.439 13.82 22.6128 10.4452 23.129 9.38683C23.7336 8.14718 24.1296 6.84363 24.6027 5.57572C25.1574 4.39496 25.784 3.29537 26.3047 2.09193C26.5039 1.63157 27.7747 0.19331 28.1917 0.00863487ZM12.0211 17.867C12.0148 18.6257 12.1824 19.2085 12.0011 19.9187C12.4001 20.8082 13.1161 21.5328 14.1269 21.6236C15.3635 21.6267 15.4125 21.2728 15.5216 20.1594C15.6316 19.0378 14.7201 16.9888 13.4217 16.9948C12.7192 17.1849 12.5054 17.3214 12.0211 17.867ZM20.0374 21.5182C20.5758 21.7228 21.4303 22.2097 21.6637 21.4471C21.9184 20.6148 21.9742 19.7495 22.064 18.8877C21.8916 18.5438 21.2439 17.4089 20.928 17.2572L20.8101 17.2605L20.7833 17.2792C20.3229 17.597 18.5162 18.298 18.4148 18.6306C18.3349 18.8922 18.6631 20.3817 18.9653 20.7C19.363 21.1191 19.4787 21.2192 20.0374 21.5182Z" fill="#EEE9F3"/>
<path d="M45.765 13.1661C46.1833 13.1335 47.5057 13.2096 48.0725 13.2003C48.5979 14.3155 49.0617 17.6323 49.2947 18.9092C49.5487 20.3004 49.88 21.5239 50.211 22.8948C49.3754 22.7987 48.0555 22.8454 47.1316 22.8088C47.0465 22.173 46.935 21.5221 46.8469 20.8793C45.6673 20.8513 44.4872 20.8543 43.3078 20.8884C42.6372 20.8949 42.4364 22.1716 42.0545 22.6016C41.9689 22.698 41.8355 22.8247 41.6987 22.8387C40.7373 22.9371 39.7512 22.7581 38.7875 22.852C38.9666 22.6263 39.1347 22.3548 39.2919 22.1113C41.0061 19.4554 43.0617 17.0475 44.8076 14.4153C45.0382 14.0675 45.4411 13.4013 45.765 13.1661ZM44.6716 18.6686C45.3379 18.6598 46.0043 18.6561 46.6706 18.6577C46.5487 18.0951 46.5366 15.7527 46.3609 15.5524C46.0849 15.9603 44.5764 18.2337 44.4353 18.5701L44.4663 18.6494L44.6716 18.6686Z" fill="#EEE9F3"/>
<path d="M65.7952 13.1693C65.8971 13.1534 65.9997 13.1417 66.1025 13.1343C68.2659 12.974 69.5767 13.4706 71.1755 14.8266C70.5546 15.076 69.7133 15.3482 69.0634 15.582C68.1534 14.8374 66.7965 14.3917 65.6211 15.0674C65.4926 15.1413 65.492 15.2869 65.4833 15.4167C65.999 16.8435 70.6989 16.1089 72.0756 17.9827C74.5353 21.3306 71.8693 23.2179 68.5033 23.0269C66.1368 22.8136 64.4634 22.1566 63.1627 20.088C63.802 19.9366 64.9475 19.4942 65.6823 19.2761C66.4339 20.371 67.3019 20.6682 68.6054 20.6436C69.0941 20.6344 70.2322 20.4412 70.0582 19.7283C69.7186 18.3366 67.1771 18.5736 66.0783 18.2193C65.2951 17.9819 64.6746 17.8888 64.0072 17.3748C63.088 16.6936 62.4306 15.1882 63.2714 14.1955C63.9221 13.4272 64.8506 13.2715 65.7952 13.1693Z" fill="#EEE9F3"/>
<path d="M52.5281 13.1676C52.923 13.144 54.4191 13.1727 54.766 13.2052C55.4364 13.268 56.4894 14.8395 56.882 15.447C57.4372 14.7337 57.9345 13.9716 58.4938 13.2572C59.3355 13.1978 60.5269 13.2815 61.2372 13.1254C60.5596 14.3353 59.2373 16.2326 58.3795 17.3354C59.6726 19.2462 61.0922 21.0696 62.6289 22.7936C61.8092 22.8395 60.8614 22.7993 59.9804 22.8409L59.2505 22.8207C58.6156 22.1395 57.2859 20.3061 56.8271 19.5144C56.4833 19.9208 54.6646 22.7542 54.4846 22.7703C53.4835 22.8595 52.2895 22.744 51.2408 22.9012C52.2122 21.1801 54.1293 18.8256 55.418 17.2957C55.3117 17.1858 54.7536 16.448 54.706 16.3372C54.51 15.8804 52.5532 13.5159 52.5281 13.1676Z" fill="#EEE9F3"/>
<path d="M42.6961 10.6434C43.2694 9.96703 43.8271 9.27784 44.3687 8.57627C44.6619 8.19989 45.3876 7.1204 45.8401 7.055L45.8796 7.04953C46.3872 6.97613 47.7351 7.04625 48.3455 7.05989C48.2458 7.31474 48.1605 7.58859 48.0897 7.85311C47.6689 9.42694 47.06 11.0109 46.7342 12.6063C45.9301 12.5872 45.5157 12.4953 44.6842 12.5945C44.8769 11.5437 45.6577 9.4974 46.0685 8.43074L46.0526 8.40834L45.9683 8.43569L46.0507 8.41059C45.8225 8.49274 43.1333 12.1319 42.8283 12.5643C42.287 12.6091 41.6459 12.623 41.0985 12.6486C41.0604 11.0768 41.2733 9.93681 41.3351 8.40345C40.8494 9.19857 39.5956 11.7021 39.2897 12.5958C38.5917 12.5471 37.8849 12.5702 37.1855 12.5856C37.5906 11.9254 39.8393 7.36753 40.2108 7.0565C41.0032 7.09864 42.0699 7.08361 42.8707 7.05679C42.8271 7.44767 42.8334 8.11591 42.8196 8.52878C42.7902 9.23426 42.7491 9.93923 42.6961 10.6434Z" fill="#EEE9F3"/>
<path d="M63.3962 7.02731C64.0427 7.03877 64.6939 7.0447 65.339 7.08246C65.7404 7.49107 66.1695 8.09541 66.5488 8.54202C67.6306 9.81546 68.7034 11.3501 69.8133 12.5699C69.0725 12.536 68.3884 12.6679 67.6973 12.5607C67.3099 12.5005 67.2009 12.2565 67.0081 11.9445L66.7496 11.574C65.7815 11.5113 64.6479 11.6086 63.7611 11.5132C63.6554 11.9546 63.6167 12.1661 63.5746 12.6178C62.6572 12.5297 62.1111 12.541 61.1984 12.5854C61.8049 10.943 62.6536 8.60534 63.3962 7.02731ZM64.1195 10.3332C64.5434 10.292 64.7611 10.2767 65.1885 10.2912C65.3865 10.3082 65.6251 10.353 65.7998 10.2841C65.6824 10.0207 64.8739 8.65168 64.6988 8.51254C64.4234 9.12505 64.284 9.68311 64.1195 10.3332Z" fill="#EEE9F3"/>
<path d="M53.4483 7.01591C53.9319 7.05264 54.4517 7.04325 54.9398 7.04297C54.8723 7.42924 54.8159 7.74932 54.7828 8.14198C53.5274 8.09714 52.2705 8.1155 51.0171 8.19707L50.7895 8.88379C51.4672 8.92363 52.4724 8.88978 53.1982 8.9044C53.106 9.28129 53.0292 10.1975 52.5409 10.1834C51.8865 10.1645 51.2492 10.1451 50.578 10.1804C50.4834 10.4932 50.3983 10.8634 50.3161 11.1839C51.6981 11.1535 53.2012 11.0921 54.57 11.1571C54.5101 11.3722 54.4944 12.3055 54.477 12.6018C53.8865 12.5111 52.7442 12.5632 52.1153 12.576C50.7002 12.6048 49.4135 12.6416 47.9935 12.5604C48.213 11.1163 48.9712 8.63188 49.3631 7.07929C50.7181 7.02282 52.0838 7.07077 53.4483 7.01591Z" fill="#EEE9F3"/>
<path d="M68.4329 7.05644C70.3342 6.92156 70.3476 6.87591 70.9529 8.76797C71.2019 9.54598 71.6101 10.3617 71.8337 11.1674C72.9916 11.2013 74.3221 11.1736 75.5055 11.1862C75.6505 11.417 76.0944 12.248 76.1855 12.4874L76.1221 12.5787C74.6095 12.6623 73.0649 12.5821 71.5501 12.5617C71.1087 12.5557 70.7002 12.5242 70.2598 12.5813C69.7852 11.2621 69.3744 9.93169 68.9625 8.59279C68.8027 8.07308 68.6494 7.5567 68.4329 7.05644Z" fill="#EEE9F3"/>
<path d="M55.2943 7.0626C55.5881 7.0558 55.8833 7.0527 56.177 7.0611C58.0036 7.11309 59.8411 6.99801 61.6658 7.05258C61.6521 7.47996 61.6841 7.72974 61.7464 8.15044C61.1247 8.09656 60.0614 8.16726 59.413 8.20214C59.4599 8.95316 59.4744 9.72703 59.4977 10.4806C59.5655 11.1788 59.5137 11.9346 59.6458 12.6226C58.9519 12.5676 58.273 12.6637 57.509 12.5882C57.541 12.2043 57.5006 11.4698 57.5011 11.0526C57.5028 10.1002 57.5242 9.14802 57.5653 8.1965C56.8155 8.21596 55.9915 8.14993 55.2115 8.16317C55.2487 7.84263 55.1968 7.29828 55.2943 7.0626Z" fill="#EEE9F3"/>
<path d="M71.9947 7.1025C72.6892 7.11787 74.6418 7.20513 73.7656 8.41479C73.728 8.41139 73.686 8.40811 73.6497 8.39695C73.1436 8.23852 72.6424 8.42153 72.1585 8.13628C71.7133 7.87383 71.7707 7.47599 71.9947 7.1025ZM72.8857 7.99029C73.2094 8.04176 73.4142 8.15655 73.6849 8.09104L73.7971 7.99012C73.7673 7.63384 73.2569 7.13767 72.8196 7.39701C72.5277 7.35406 72.3081 7.25263 72.0502 7.25585C72.0491 7.69584 72.1713 8.25671 72.7541 8.14192L72.7696 8.06732C72.5942 7.92829 72.4753 7.83578 72.3186 7.6746L72.309 7.57086L72.4076 7.50506C72.6024 7.55486 72.7138 7.69445 72.8148 7.86324C72.8396 7.90498 72.8633 7.94735 72.8857 7.99029Z" fill="#EEE9F3"/>
</svg>
