<?xml version="1.0" encoding="UTF-8"?>
<svg id="HORIZONTAL" xmlns="http://www.w3.org/2000/svg" viewBox="520 715 980 575">
  <path d="M586.59,893.35c.23,1.55,3.04-15.82,3.99-15.68-.29.59,2.23-16.29,2.39-16.58,1.02-.68,4.64-17.18,3.21-18.19.16.44,3.66-15.51,3.81-16.14.83.55,4.32-15.81,3.84-16.05,1.67.35,4.92-16.64,5.06-17.29-1.61-.81,2.48-16.43,2.97-16.44-.5-.34,3.45-16.47,3.52-16.57-.62-.48,2.91-17.96,2.74-16.99.95-1.27,20.59-1.08,20.37-1,.1.12,19.1.29,19.44-.14,1.31,1.44,20.22,1.52,19.89,1-.86-1.4,1.81,16.56,2.53,16.95.4-.09,2.14,17.01,2.89,17.55-.03.16,1.22,17.37,2.32,16.36.5.65,2.53,17.93,2.12,18.21-.58-1.03,2.12,15.46,2.44,16.05-1.32.92,1.92,17.78,1.68,17.3,1.17-.67,9.48-17.02,9.74-16.38-1.38-1.54,7.32-18.04,6.35-17.51,1.15-.3,8.91-16.69,7.87-16.73.86-.48,9.36-17.93,9.44-18.69-.15.48,6.36-16.25,8.12-17.43-1.54.21,7.67-15.77,7.8-16.99-1.41.63,18.52,1.14,18.67,1.62,1.11.12,21.14-1.01,20.04-.33.73.14,19.76-.83,19.62-.18.68-.7-1.49,19.18-1,19.43-1.15-.76-3.67,17.83-2.21,17.38-.76,1.57-2.65,20.32-3.87,19.17.76-.54-.87,20.03.32,18.82-1.57,1.06-2.91,19.75-3.37,18.87-.41,1.53-3.01,18.67-1.52,20.5-.61-.88-2.79,17.88-3.67,18.04.71-.97-1.18,18.49-.6,18.79,0,.59-22.05-1.05-21.07-.23-1.38.9-22.68-.23-21.86.75.65.25,2.32-17.05,3.9-17.34-1.17-.24.03-17.14,1.1-17.69-.6.71,1.1-15.8,2.38-17.38-.45,1.01,2.6-16,1.49-16.45,1.63.54,3.59-16.2,3.11-17.64.46,1.78,1.88-15.78,1.66-15.26,1.03-.25,1.82-18.35,1.87-17.49,1.34.67-7.1,16.68-8.06,17.44,1.15-.43-7.46,16.92-8.03,16.05,1.65-.69-6.29,16.42-6.37,17,.28-.5-9.45,17.53-8.94,16.85.03.72-7.42,17.76-8.1,18.05.83-1.23-6.92,17.1-6.56,15.53-1.21,1.52-8.31,17.03-7.62,17.43-1.84,1.02-17.97.55-18.03.04.28.88-18.02.37-18.47.51-.26-.66-1.07-17.75-1.69-16.34.24-.61-1.9-17.07-2.7-17.92-.08.58-1.92-16.95-1.86-17.03,1.05.64-2.28-16.78-2.14-16.37.98.05-2.27-17.83-1.24-17.54-.06.65-1.99-16.75-3.51-17.45-.29-.54-.84-16.83-1.32-16.55-.83.14-2.88,17.62-3.72,16.72.36-.8-4.07,17.68-3.38,17.49,1.06.58-4.32,17.54-3.02,16.92-.87-.09-3.23,16.15-2.88,15.91-.97,1.04-3.45,18.55-4.31,18.51.98.41-3.68,15.7-3.58,16.32-.41.92-2.58,16.18-2.37,16.98-.06.93-20.73,1.29-20.39.57.17-.61-20.64-.54-21.26-1.1ZM811.26,894.74c-1.47-1.61,1.9-19.64.12-19.92.25,1.19,2.97-18.04,2.15-19.29.84.31,3.06-18.98,3.2-18.08-.63-1.04.28-19.91.81-18.66,1.33-.88,2.47-19.02,2.15-20.13,1.01.59,2.01-18.25,2.76-18.21-.5.38,1.36-19.36,1.58-18.26-.62-1.17,2.1-18.72,2.07-18.37-1.12-.74,16.69-1.03,15.94,0,1.11-1.45,17.92-.47,17.49-.38.53-.45,17.49-.76,18.71-2.08.4,0,16.43,1.76,16.26,2.63,1.07-1.12,18.37-.33,18.24-.62,1.07-.12,17.8-.35,17.61-.49.12-.66,16.65.39,18.08.22-1.36-.83-.8,15.83-.01,15.1.11.39-2.26,15.25-2,16.11,1.23.86-16.91.35-15.99.04-.38-.95-17.61.77-17.22-.18.48.42-17.52,1.29-17,1.28,1.12.46-15.44-.4-17.01-.29,1.39.11-16.98-.14-15.46-.02-1.87-.33-2.36,21.45-2.94,20.87.07.11,16.52.87,17.1.24.81-.14,16.46.87,17.54.93.45-.56,15.98-.35,15.32.34,1.08-.26.49,15.38.45,16.3.96-.28-.99,16.58-1.62,15.96.04-.63-16.07-.49-17.04,1.15.04-1.26-17.64-1.07-16.45-.27-1.06-.78-17.41-1.5-17.31-.75-.27.78-1.57,13.25-.52,14.77.51-.4-.99,13.46-2.29,12.88.09.87,17.49.07,18.33.54-.22-.63,18.88-.32,17.79-.69-.38-.29,18.78,1.01,17.32-.45,1.33.93,19.17.5,18.68,1.37.54-1.48,16.89-.55,17.9-1.38-.08.62-.59,19.41-1.57,19.56.14-1.33-.3,18.11.04,18.45-.33-.67-19.37-1.73-18.07,0-1.11-.91-20.84-.9-19.54-.27-1.44.48-19.07-.73-20.19-1.71.69.51-19.17,1.52-19.58,1.21,1.41.28-18.03-.27-18.2-.99-.14,1.54-19.22,1.1-19.11.77.37-.65-19.32-.67-18.5.75ZM1014.18,894.79c-.75-1.13.63-18.17.15-17.56-.1-.64-1.2-17.22-.31-16.57.91-1.16.49-18.43-.18-18.4.32,1.35.15-16.04.23-15.73-1.04-.14-1.14-17.66.08-17.24.08-.48-.96-17.33.28-17.89-.95-.34-2.08-15.75-1.46-15.86-.07-.26-16.18-.93-17.41-1.65.39.03-15.5,1.76-16.21.5,0,1.16-16.76-.08-16.4.76-1.1-.53-.34-16.03-.54-15.86.08-.42,1.27-17.46.71-17.58-.23,1.08,17.31,1.83,17.36,1.14-.35-.21,17.27.55,17.73-1.02.41.93,17.8-.08,16.74.64,1.06-.46,17.33,1.4,17.42.61.88-.41,18.09-.54,19.29.84-1.49-1.55,16.73-2.01,17.03-.47-1.21.06,17.11-.02,17.55-.81,0,.72,16.92-1.08,17.37.18-.43-1.03.68,15.11.91,15.05-.75.57,1.09,15.93,1.18,16.94-.79.12-16.82-.21-18.33.33.49-.41-16.68-.54-16.75-.85.46-.69-17.04.63-16.18.7-.71.84.15,17.66.58,16.73-.6-.52-.93,17.57-.47,17.65.21-1.2.77,15.94.33,16.64,1.54-.78,1.73,16.57,1.21,17.87.47-1.9.93,15.14.19,16.23.27-.5,1.09,16.29,1.43,17.33.55.1-.51,16.22-.56,16.06.8,1.77-20.42,1.56-20.86,1.38.66.23-21.32-.07-22.13-.11ZM1097.41,894.24c1.21.03,7.32-16.46,7.41-17.39-.35,1.44,6.13-15.24,4.81-16.24,1.5-.93,5.4-16.55,4.89-16.35,1.12.24,6.9-16.97,7.46-17.41-.15.53,4.49-16.86,5.55-16.95-1,.41,5-17.32,5.32-17.32-.65.56,6.12-16.36,4.82-16.07,1.45-.56,7.33-16.4,6.26-15.97.67-1.9,5.78-18.64,6.18-18.18-.01,1.04,22.68,1.17,21.52-.1-.24.16,22.31.18,22.05.32-.3-.28,8.86,14.76,9.61,14.92-.06-.49,7.21,15.06,7.19,15.83.47-.74,8.35,15.17,8.06,14.01-.51,1.63,8.44,16.02,8.31,15.04.13-.07,9.03,15.8,8.79,15.52-.4,0,6.67,15.19,7.73,16.1.52-.43,6.64,14.27,7.37,15.83-.17-1.33,7.88,13.89,8.1,15.06-.47-.55,8.85,13.41,9.6,14.72-.07-.82,7.65,13.65,7.38,14.01.04-.05-17.13,1.18-15.21,1.71-.82-1.22-17.33-2.06-17.14-1.94.83,1.05-14.43.04-15.93.23.11.92-5.62-14.35-5.27-13.1.4.68-6.57-13.3-7.08-14.75-.31,1.13-19.94,1.09-20,.05-1.26,1.78-22.11,2.03-21.45.46.91,1.16-20.18.87-21.25.63.05-.73-2.97,13.77-3.18,14.24-.13-1.56-2.97,11.93-4.23,12.65,1.38-.19-15.16-.16-14.46.68-.74-.14-16.17.21-15.49-.47-1.81-.68-17.64.24-17.71.23ZM1162.46,835.09c.01-1.6,18.47-1.18,18.5-.33-.21-1.55,18.96-.31,18.97.23,1-.31-7.63-17.79-7.48-18.63.1.99-8.87-16.64-8.33-16.84-.48.45-9.15-17.81-7.6-19.15-1.32-.08-6.31,18.77-5.51,19.59-.73-.04-4.63,16.9-4.36,16.15-.63.91-4.24,18.14-4.19,18.97ZM1291.08,893.91c-.42-.43-4.01-15.62-2.94-15.84-.93-1.47-3.16-17.79-3.8-18.28,1.42.93-1.52-16.55-2.18-16.15.76-.2-2.36-17.02-.99-16.4-1.09.35-2.48-16.48-3.87-17.48.12-.55-2.45-17.37-3.19-17.49.29,1.55-.85-14.95-2.24-16.05,1.61-.45-1.5-16.95-1.31-16.15.71-1.06-2.29-17.65-3.25-17.98.03.94,20.48,1.4,19.57-.14,1.54,1,21.52.85,19.99-.17.97,1.44,4.4,19.23,3.07,19.9,1.2.99,3.83,18.44,4.94,19.04-.84.81,3.59,19.16,3.49,18.73.4.01,1.57,20.75,2.58,19.96-.12-.45,3.01,19.97,3.74,20.2.81-.69,2.83,19.24,1.95,19.65.16-1.41,20.07-1.71,20.51-1.06.17-1.05,19.48.35,20.28-1.25-1.01.64,18.71,1.74,19.86,1.55-1.14-.24,18.61-1.87,19.86.03-.46-1.51,2.33,17.52,2.34,17.59.85-.35,3.03,17.93,3.3,16.8.15,1.06-17.35,1.36-15.85,2.12-1.84-.86-19.14-.2-19.1.12,1.39.24-17.62.39-16.17-.69-.28-.68-19.46-.12-18.28-.23.03-.38-18,.69-17.88,1.04-.35-.97-18.18-1.72-17.36-2.02-1.09-.06-18.29,1.14-17.05.65ZM543.36,1229.76c-1.38.9,5.44-16.84,6.26-15.86.65.25,7.41-15.72,9-16.02-1.17-.24,5.13-16.43,6.2-16.97-.6.71,6.17-14.97,7.45-16.55-.45,1.01,7.61-14.94,6.5-15.39,1.63.54,8.67-15.42,8.2-16.86.46,1.78,6.91-14.8,6.69-14.29,1.03-.25,6.76-17.82,6.81-16.96,1.34.67,8.65-16.12,7.69-15.36,1.15-.43,7.56-16.38,6.99-17.25,1.65-.69,8.45-17,8.37-16.42.28-.5,6.82-15.2,7.34-15.88.03.72,7.18-15.75,6.5-15.45.83-1.23,8.89-15.84,9.25-17.42-1.21,1.52,6.74-16.01,7.43-15.62-1.84,1.02,5.9-16.68,5.84-17.18.28.88,7.09-15.56,6.63-15.42-.26-.66,8.58-16.66,7.96-15.25.24-.61,18.06-.45,17.27-1.29-.08.58,17.02.83,17.08.74,1.05.64,17.15.44,17.29.85.98.05,17.76-1.26,18.79-.97-.06.65,4.68,17.49,3.16,16.8-.29-.54,6.58,17.02,6.1,17.3-.83.14,4.92,17.94,4.07,17.04.36-.8,3.93,17.77,4.62,17.57,1.06.58,3.68,17.79,4.98,17.17-.87-.09,4.77,16.29,5.12,16.04-.97,1.04,4.54,18.4,3.68,18.37.98.41,4.33,16,4.43,16.62-.41.92,5.36,16.16,5.57,16.96-.06.93,5.26,17.91,5.6,17.19.17-.61,3.4,16.8,3.51,17.1-.12.59,5.39,16.93,4.12,17.48,0,.75,5.24,16.49,4.69,17.17.63.25,5.28,16.82,6.8,16.7-1.12.52,4.02,18.01,4.51,16.77-1.34-.29,5.16,17.57,4.44,17.46-1.15-.63,2.99,16.74,3.86,17.41,1.06.12-19.19-.42-18.6.58-.13-.12-18.49-.42-18.45-1.27.1.77-18.36,1.07-19.3-.12.4,1.12-19.3,1.06-19.44.77,1.09,1.2-2.42-17.39-3.08-18.6-.11-.02-3.52-16.65-4.73-16.35.8-.4-2.28-19.28-2.82-18.73.27.35-19.57.85-20.25-.23,1.21.5-18.97-.98-19.86-.55,1.32,1.18-19.07.79-19.09.56-.22.81-20.57.44-19.19-.78-.98.21-20.72,1.43-21.13,1.75,1.13-.84-7.01,17.57-5.78,18.01-.17-1.36-8.19,16.38-7.16,16.18-.88,1.57-7.23,17.73-6.57,18.68-.16-.45-19.68.55-19.33.3.45.39-18.76.3-19.33-.69-.02,1.15-18.03,1.71-17.63.71-1.4-.41-20.04-1.41-19.06-.59ZM670.63,1115.21c.86-.48,19.03-.79,19.12-1.54-.15.48,16.2.81,17.95-.37-1.54.21,17.14,1.52,17.28.3-1.41.63-4.73-16.01-4.58-15.54,1.11.12-1.99-18.31-3.09-17.63.73.14-3.31-17.62-3.45-16.97.68-.7-3.63-16.29-3.14-16.03-1.15-.76-4.94-18.07-3.48-18.51-.76,1.57-4.16-15.95-5.38-17.1.76-.54-4.44,18.53-3.25,17.32-1.57,1.06-5.99,17.71-6.45,16.82-.41,1.53-6.09,16.61-4.6,18.44-.61-.88-5.88,15.88-6.76,16.04.71-.97-4.37,16.7-3.78,17.01,0,.59-5.36,17.82-6.4,17.78ZM818.46,1278.02c.39.03,10.97-13.66,10.26-14.92,0,1.16,10.57-14.28,10.92-13.44-1.1-.53,9.38-14.55,9.18-14.37.08-.42,10.79-15.89,10.23-16.01-.23,1.08,10.22-13.09,10.27-13.78-.35-.21,9.33-13.87,9.79-15.44.41.93,10.21-14.69,9.15-13.97,1.06-.46,10.13-13.42,10.22-14.2.88-.41,10.45-15.12,11.65-13.75-1.49-1.55,8.94-16.51,9.24-14.97-1.21.06,9.37-14.56,9.81-15.34,0,.72,8.83-15.68,9.28-14.43-.43-1.03,9.47-15.81,9.69-15.87-.75.57,11.68-14.14,11.77-13.12-.79.12-10.07-15.39-11.58-14.85.49-.41-9.49-15.56-9.56-15.87.46-.69-10.7-14.52-9.84-14.45-.71.84-9.29-14.39-8.86-15.31-.6-.52-10.47-14.75-10.02-14.66.21-1.2-10.74-15.77-11.17-15.06,1.54-.78-7.72-15.78-8.24-14.48.47-1.9-10.27-16.67-11-15.58.27-.5-9.11-15.99-8.78-14.94.55.1,18.73-1.49,18.68-1.65.8,1.77,21.28,1.9,20.84,1.73.66.23,19.2-.89,20.02.54-1.47-1.61,20.26-1.23,18.47-1.51.25,1.19,11.36,15.77,10.54,14.51.84.31,11.11,14.83,11.25,15.73-.63-1.04,8,13.97,8.53,15.22,1.33-.88,10.61,14.77,10.28,13.66,1.01.59,10.13,15.69,10.88,15.73-.5.38,9.88-15.56,10.1-14.45-.62-1.17,10.4-14.61,10.37-14.27-1.12-.74,9.47-15.91,8.72-14.88,1.11-1.45,10.58-15.35,10.15-15.25.53-.45,9.65-15.42,10.87-16.74.4,0,18.82,1.72,18.66,2.6,1.07-1.12,20.6-.33,20.47-.62,1.07-.12,20.03-.35,19.84-.49.12-.66,18.84.34,20.26.17-1.36-.83-10.15,15.13-9.36,14.4.11.39-11.59,14.17-11.33,15.03,1.23.86-10.21,15.49-9.28,15.18-.38-.95-9.86,15.38-9.47,14.43.48.42-10.63,16.36-10.11,16.35,1.12.46-8.81,14.82-10.38,14.93,1.39.11-9.82,14.82-8.3,14.93-1.87-.33-10.49,14.4-11.08,13.83.07.11-10.16,15.94-9.58,15.3.81-.14,9.54,15.48,10.62,15.54.45-.56,9.26,14.33,8.61,15.01,1.08-.26,11.2,12.91,11.17,13.83.96-.28,9.86,14.78,9.23,14.16.04-.63,10.86,14.35,9.89,16,.04-1.26,9.96,12.58,11.15,13.39-1.06-.78,9.3,14,9.4,14.75-.27.78,9.47,13.71,10.53,15.23.51-.4,9.98,14.18,8.68,13.6.09.87,9.59,14.67,10.42,15.14-.22-.63,11.27,14.42,10.19,14.05-.38-.29,10.91,15.6,9.45,14.15,1.33.93,11.51,15.22,11.02,16.09.54-1.48,8.96,14.48,9.97,13.65-.08.62-17.79.72-18.77.87.14-1.33-17.78.17-17.44.5-.33-.67-17.79-1.79-16.5-.07-1.11-.91-19.43-.9-18.13-.27-1.44.48-17.67-.73-18.79-1.71.69.51-17.74,1.53-18.14,1.22,1.41.28-7.07-15.97-7.24-16.69-.14,1.54-8.32-14.65-8.21-14.97.37-.65-7.66-15.93-8.27-16.49.23,1.55-8.85-14.86-7.9-14.72-.29.59-9.66-15.29-9.49-15.58,1.02-.68-7.18-15.71-8.62-16.72.16.44-8.22-14.43-8.07-15.05.83.55-7.64-15.28-8.11-15.52,1.67.35-6.92-15.34-6.78-15.98-1.61-.81-9.51,16.1-9.01,16.08-.5-.34-7.9,16.3-7.84,16.2-.62-.48-9.73,14.12-9.9,15.1.95-1.27-6.59,15.71-6.81,15.79.1.12-9.6,14.92-9.25,14.49,1.31,1.44-7.52,17.62-7.85,17.1-.86-1.4-8.76,15.25-8.04,15.64.4-.09-8.52,15.88-7.78,16.42-.03.16-9.38,15.83-8.28,14.83.5.65-17.68.85-18.09,1.12-.58-1.03-17.41-2.38-17.1-1.79-1.32.92-18.69,1.92-18.92,1.44,1.17-.67-16.7-1.21-16.44-.58-1.38-1.54-18.15-.37-19.12.16,1.15-.3-16.65-.26-17.88-.98ZM1304.02,1235.45c-.42-.43-22.03.25-20.96.03-.93-1.47-20.77-3.86-21.41-4.35,1.42.93-19.02-5.63-19.68-5.22.76-.2-16.31-7.44-14.95-6.82-1.09.35-15.29-9.02-16.67-10.02.12-.55-13.45-11.58-14.18-11.69.29,1.55-9.89-11.06-11.29-12.17,1.61-.45-8.63-14.4-8.44-13.59.71-1.06-7.4-16.08-8.37-16.41.03.94,16.96-4.96,16.05-6.5,1.54,1,17.74-5.51,16.2-6.53.97,1.44,17.71-6.27,16.39-5.61,1.2.99,16.8-7.25,17.91-6.65-.84.81,13.26,21.44,13.17,21.01.4.01,9.01,10.47,10.02,9.68-.12-.45,11.34,6.28,12.08,6.51.81-.69,14.8,4.51,13.92,4.92.16-1.41,15.55-.58,15.99.07.17-1.05,22.76-2.41,23.56-4.01-1.01.64,16-7.61,17.14-7.8-1.14-.24,3.48-19.89,4.72-17.99-.46-1.51-14.7-22.18-14.69-22.1.85-.35-18.01-7.57-17.74-8.69.15,1.06-18.97-2.77-17.47-2.02-1.84-.86-18.75-3.52-18.71-3.2,1.39.24-17.2-2.93-15.75-4.01-.28-.68-17.67-3.94-16.49-4.06.03-.38-16.19-4.54-16.07-4.19-.35-.97-15.49-8.45-14.67-8.76-1.09-.06-17.01-10.76-16.96-9.93.01-1.6-15.32-16.36-15.28-15.52-.21-1.55-9.41-18.92-9.4-18.38,1-.31-2.82-20.54-2.67-21.37.1.99.7-19.55,1.24-19.75-.48.45,6.6-18.83,8.16-20.16-1.32-.08,9.95-14.06,10.75-13.23-.73-.04,14.5-12.66,14.77-13.41-.63.91,16.6-8.31,16.53-8.32,1.21.03,20.53-5.72,20.62-6.65-.35,1.44,20.32-1.81,19-2.81,1.5-.93,20.77-1.47,20.27-1.27,1.12.24,22.81,1.64,23.37,1.19-.15.53,20.21,4.53,21.27,4.45-1,.41,20.46,7.03,20.77,7.03-.65.56,19.3,11.92,18,12.21,1.45-.56,12.86,10.63,11.79,11.05.67-1.9,9.73,10.02,10.12,10.49-.01,1.04,8.68,14.38,7.52,13.11-.24.16-14.92,5.19-15.18,5.33-.3-.28-14.61,6.35-13.86,6.51-.06-.49-16.15,5.7-16.17,6.47.47-.74-14.85,5.52-15.14,4.36-.51,1.63-12.18-14.17-12.3-15.15.13-.07-17.15-8.91-17.39-9.19-.4,0-24.77-3.58-23.71-2.67.52-.43-23.28,1.36-22.55,2.92-.17-1.33-14.28,7.03-14.06,8.2-.47-.55-3.35,12.16-2.59,13.48-.07-.82,7.99,14.67,7.72,15.02.04-.05,22.19,9.37,24.11,9.9-.82-1.22,17.42,2.61,17.62,2.73.83,1.05,20.2,4.35,18.7,4.53.11.92,19.28,3.53,19.62,4.79.4.68,18.52,5.31,18.02,3.85-.31,1.13,18.63,7.55,18.56,6.51-1.26,1.78,12.16,8.55,12.82,6.99.91,1.16,12.75,9.55,11.68,9.3.05-.73,11.19,10.98,10.98,11.45-.13-1.56,9.01,11.47,7.74,12.19,1.38-.19,6.51,13.62,7.2,14.47-.74-.14,2.11,15.97,2.79,15.29-1.81-.68.21,20.21-.6,20.17-.75-1.13-2.9,17.8-3.39,18.41-.1-.64-8.73,17.48-7.83,18.14.91-1.16-10.78,13.43-11.46,13.45.32,1.35-13.78,13.25-13.7,13.56-1.04-.14-17.22,8.7-16,9.12.08-.48-20.89,6.53-19.66,5.96-.95-.34-22.07,5.49-21.44,5.38-.07-.26-21.26.47-20.02-.02Z"/>
</svg>